<svg xmlns="http://www.w3.org/2000/svg" width="162" height="47" viewBox="0 0 162 47" fill="none"><path d="M71.0363 21.4274C71.0363 24.6473 68.4737 26.2621 64.6174 26.2621H58.9294V30.4103H54.8164V16.5879H64.6211C68.4737 16.5879 71.0363 18.2462 71.0363 21.4274ZM66.8603 21.506C66.8603 20.1039 65.8111 19.6495 64.278 19.6495H58.9294V23.3432H64.2755C65.8111 23.3432 66.8603 22.8923 66.8603 21.506Z" fill="white"></path><path d="M71.9834 23.496C71.9834 18.8136 75.594 16.123 81.182 16.123C86.7701 16.123 90.4054 18.8184 90.4054 23.496C90.4054 28.1735 86.7738 30.8689 81.1857 30.8689C75.5977 30.8689 71.9834 28.182 71.9834 23.496ZM86.2084 23.496C86.2084 20.8876 84.2914 19.407 81.1845 19.407C78.0985 19.407 76.1618 20.8876 76.1618 23.496C76.1618 26.1043 78.0776 27.5849 81.1845 27.5849C84.2914 27.5849 86.2084 26.1079 86.2084 23.496Z" fill="white"></path><path d="M104.477 30.4151L100.746 26.0494H96.5947V30.4151H92.5039V16.5879H102.41C106.02 16.5879 108.829 18.1483 108.829 21.309C108.829 23.62 107.335 25.0812 105.117 25.7134L109.272 30.4151H104.477ZM102.098 23.1256C103.57 23.1256 104.639 22.7304 104.639 21.3875C104.639 20.0447 103.57 19.6495 102.098 19.6495H96.5774V23.1256H102.098Z" fill="white"></path><path d="M125.201 19.8078H119.33V30.4151H115.217V19.8078H109.385V16.5879H125.201V19.8078Z" fill="white"></path><path d="M141.823 27.333V30.4151H126.754V16.5879H141.602V19.6688H130.809V21.9411H139.705V24.8842H130.809V27.333H141.823Z" fill="white"></path><path d="M155.884 30.4151L152.152 26.0494H147.996V30.4151H143.9V16.5879H153.806C157.417 16.5879 160.225 18.1483 160.225 21.309C160.225 23.62 158.732 25.0812 156.513 25.7134L160.668 30.4151H155.884ZM153.504 23.1256C154.977 23.1256 156.046 22.7304 156.046 21.3875C156.046 20.0447 154.977 19.6495 153.504 19.6495H147.976V23.1256H153.504Z" fill="white"></path><path d="M21.3679 9.2448L32.7502 15.6798L21.3679 22.1148L18.5214 20.506L9.98432 15.6798L21.3679 9.2448ZM8.75857 17.7587V30.6274L20.1421 37.0624V24.1937L17.2956 22.5849L8.75857 17.7587ZM42.6537 13.8789V33.1221C42.6537 33.8555 42.4565 34.576 42.0818 35.211C41.7071 35.8461 41.1683 36.3733 40.5194 36.7397L23.5021 46.3607C22.8535 46.7277 22.1176 46.9209 21.3685 46.9209C20.6194 46.9209 19.8835 46.7277 19.2348 46.3607L2.21506 36.7397C1.56653 36.3731 1.02799 35.8458 0.653569 35.2107C0.279144 34.5757 0.0820277 33.8554 0.0820313 33.1221V13.8789C0.0822778 13.1456 0.2795 12.4254 0.6539 11.7904C1.0283 11.1555 1.5667 10.6281 2.21506 10.2613L19.2336 0.64025C19.8822 0.273283 20.6181 0.0800781 21.3673 0.0800781C22.1164 0.0800781 22.8523 0.273283 23.5009 0.64025L40.5194 10.2613C41.1681 10.6279 41.7068 11.1551 42.0815 11.7901C42.4561 12.4251 42.6535 13.1455 42.6537 13.8789ZM36.4274 15.6798C36.4271 15.4686 36.3699 15.2613 36.2615 15.0788C36.1532 14.8963 35.9975 14.745 35.8102 14.6403L21.9801 6.81657C21.7939 6.71088 21.5825 6.65521 21.3673 6.65521C21.152 6.65521 20.9406 6.71088 20.7544 6.81657L6.92056 14.6367C6.73349 14.7416 6.57796 14.8929 6.46961 15.0754C6.36126 15.2579 6.30392 15.4651 6.30336 15.6762V31.3212C6.30367 31.5323 6.3609 31.7397 6.46927 31.9222C6.57765 32.1047 6.73333 32.256 6.92056 32.3607L20.7544 40.176C20.9407 40.281 21.152 40.3363 21.367 40.3362C21.582 40.3362 21.7932 40.2808 21.9795 40.1756C22.1657 40.0705 22.3205 39.9193 22.4283 39.7371C22.5361 39.5549 22.5931 39.3482 22.5936 39.1377V24.1937L35.8139 16.7192C36.0006 16.6142 36.1556 16.4627 36.2633 16.2802C36.371 16.0977 36.4276 15.8906 36.4274 15.6798Z" fill="white"></path></svg>